<svg xmlns="http://www.w3.org/2000/svg" viewBox="0 0 100 100">
    <defs>
        <linearGradient id="bg" x1="0" y1="0" x2="1" y2="1">
            <stop offset="0%" stop-color="#0d0f14" />
            <stop offset="100%" stop-color="#1a1f2e" />
        </linearGradient>
        <linearGradient id="accent" x1="0" y1="0" x2="1" y2="1">
            <stop offset="0%" stop-color="#22d3ee" />
            <stop offset="100%" stop-color="#4f8ef7" />
        </linearGradient>
        <filter id="glow" x="-20%" y="-20%" width="140%" height="140%">
            <feGaussianBlur stdDeviation="2" result="coloredBlur" />
            <feMerge>
                <feMergeNode in="coloredBlur" />
                <feMergeNode in="SourceGraphic" />
            </feMerge>
        </filter>
    </defs>
    <rect x="0" y="0" width="100" height="100" rx="18" fill="url(#bg)" />
    <path d="M20 32L80 32L80 68L20 68Z" fill="#111827" stroke="#2e3650" stroke-width="2" />
    <path d="M24 36L76 36L76 56L24 56Z" fill="#0f172a" />
    <path d="M34 50L46 50L46 62L34 62Z" fill="url(#accent)" filter="url(#glow)" />
    <path d="M54 40L66 40L66 52L54 52Z" fill="url(#accent)" opacity="0.9" />
    <circle cx="38" cy="44" r="3" fill="#fff" opacity="0.9" />
    <path d="M58 48L62 44L68 50" fill="none" stroke="#fff" stroke-width="2" stroke-linecap="round" />
    <text x="50" y="85" text-anchor="middle" font-family="JetBrains Mono, monospace" font-size="9" fill="#22d3ee" opacity="0.8">APEX</text>
</svg>
